<?xml version="1.0" encoding="UTF-8"?>
<svg width="16px" height="11px" viewBox="0 0 16 11" version="1.1" xmlns="http://www.w3.org/2000/svg" xmlns:xlink="http://www.w3.org/1999/xlink">
    <title>8E610F55-797C-401F-9CA5-3A5DE4003522</title>
    <g id="Page-1" stroke="none" stroke-width="1" fill="none" fill-rule="evenodd">
        <g id="02.Room-Profile" transform="translate(-727.000000, -1120.000000)" fill="#FFFFFF">
            <g id="Group-2" transform="translate(140.000000, 568.000000)">
                <g id="Group-13" transform="translate(32.000000, 24.000000)">
                    <g id="Group-11" transform="translate(419.000000, 474.000000)">
                        <g id="Group-5" transform="translate(0.000000, 42.000000)">
                            <g id="Stacked-Group" transform="translate(82.000000, 0.000000)">
                                <g id="Group-3-Copy-5" transform="translate(8.000000, 2.000000)">
                                    <g id="Icon/16/Location" transform="translate(46.000000, 6.000000)">
                                        <path d="M5.48604196,11.9785041 C5.67376108,11.7943185 5.97813668,11.7943185 6.16579329,11.9785347 L6.16579329,11.9785347 L6.2991998,12.1094083 L6.54232528,12.3479176 C6.73748191,12.5393688 6.84498212,12.7939422 6.84498212,13.0647024 C6.84498212,13.3354626 6.73748191,13.590036 6.54232528,13.7814872 C6.51429397,13.8089557 6.51429397,13.8537451 6.54232528,13.8812442 L6.54232528,13.8812442 L6.86204465,14.1948931 C7.04979502,14.3790787 7.04979502,14.6776446 6.86204465,14.8618608 C6.76823197,14.9539843 6.64513798,15 6.52216899,15 C6.3992,15 6.27616851,14.9539536 6.18229332,14.8618608 L6.18229332,14.8618608 L5.86257395,14.5482119 C5.45972941,14.1529548 5.45972941,13.5098687 5.86257395,13.1146116 C5.88001148,13.0975358 5.88366774,13.0780687 5.88366774,13.0647331 C5.88366774,13.0513974 5.88001148,13.0318997 5.8626052,13.0148239 L5.8626052,13.0148239 L5.48604196,12.6454104 C5.33819793,12.5003735 5.30729162,12.2845501 5.39232303,12.1093776 C5.41529183,12.0621049 5.44613564,12.0176527 5.48604196,11.9785041 Z M7.31210803,11.9785041 C7.49982715,11.7943185 7.80420274,11.7943185 7.99189061,11.9785654 L7.99189061,11.9785654 L8.12529712,12.1094389 L8.36842259,12.3479482 C8.77132963,12.743236 8.77132963,13.3863221 8.36842259,13.7815486 C8.35101631,13.7986243 8.34736005,13.8180914 8.34736005,13.831427 C8.34736005,13.8447321 8.35101631,13.8641991 8.36842259,13.8812749 L8.36842259,13.8812749 L8.68814197,14.1949238 C8.87586109,14.3791094 8.87586109,14.6776752 8.68814197,14.8618608 C8.59432929,14.9539229 8.47126655,14.9999693 8.34826631,14.9999693 C8.22526606,14.9999693 8.10223457,14.9539229 8.00835939,14.8618302 L8.00835939,14.8618302 L7.68867127,14.5481812 C7.49351464,14.35673 7.38601443,14.1021872 7.38601443,13.8313964 C7.38601443,13.5606669 7.49351464,13.3060628 7.68867127,13.1146116 C7.71670257,13.0871125 7.71670257,13.042323 7.68867127,13.0148239 L7.68867127,13.0148239 L7.31210803,12.6454104 C7.16426399,12.5003735 7.13335768,12.2845501 7.2183891,12.1093776 C7.24135789,12.0621049 7.2722017,12.0176527 7.31210803,11.9785041 Z M9.1381741,11.9785347 C9.32589321,11.7943491 9.63026881,11.7943491 9.81795668,11.978596 L9.81795668,11.978596 L9.95136319,12.1094696 L10.1944887,12.3479789 C10.3896453,12.5394301 10.4971455,12.7940035 10.4971455,13.0647637 C10.4971455,13.3355239 10.3896453,13.5900973 10.1944887,13.7815486 C10.1770824,13.7985937 10.1734261,13.8180607 10.1734261,13.8313964 C10.1734261,13.8447014 10.1770824,13.8641684 10.1944887,13.8812442 L10.1944887,13.8812442 L10.514208,14.1948931 C10.7019272,14.3790787 10.7019272,14.6776446 10.514208,14.8618608 C10.4203954,14.9539843 10.2973326,15 10.1743324,15 C10.0513634,15 9.92833189,14.9539536 9.83445671,14.8618608 L9.83445671,14.8618608 L9.51473733,14.5482119 C9.3195807,14.3567606 9.21208049,14.1022179 9.21208049,13.831427 C9.21208049,13.5606975 9.3195807,13.3060934 9.51473733,13.1146422 C9.53214362,13.0975664 9.53579987,13.0780994 9.53579987,13.0647637 C9.53579987,13.051428 9.53214362,13.0319304 9.51473733,13.0148546 L9.51473733,13.0148546 L9.1381741,12.6454411 C8.99033006,12.5004041 8.95942375,12.2845808 9.04445516,12.1094083 C9.06742396,12.0621356 9.09826777,12.0176834 9.1381741,11.9785347 Z M11.4697412,9.10520272 C11.8007418,9.10520272 12.0700548,9.3693717 12.0700548,9.69414903 L12.0700548,9.69414903 L12.0700548,11.0733337 L3.93016393,11.0733337 L3.93016393,9.69414903 C3.93016393,9.3693717 4.19947695,9.10520272 4.5304776,9.10520272 L4.5304776,9.10520272 Z M14.8619353,4 C15.4894678,4 16,4.50086954 16,5.11648719 L16,5.11648719 L16,9.1431864 C16,10.2074652 15.1173733,11.0733337 14.0324962,11.0733337 L14.0324962,11.0733337 L13.031463,11.0733337 L13.031463,9.69414903 C13.031463,8.84934172 12.3308991,8.16207931 11.4697412,8.16207931 L11.4697412,8.16207931 L4.5304776,8.16207931 C3.66935092,8.16207931 2.96878705,8.84934172 2.96878705,9.69414903 L2.96878705,9.69414903 L2.96878705,11.0733337 L1.96750384,11.0733337 C0.882626724,11.0733337 0,10.2074652 0,9.1431864 L0,9.1431864 L0,5.11648719 C0,4.50086954 0.510532247,4 1.13806472,4 L1.13806472,4 Z M3.44950674,5.42691716 C3.18403747,5.42691716 2.9688183,5.63805001 2.9688183,5.89847887 L2.9688183,5.89847887 L2.9688183,6.46437131 C2.9688183,6.72480017 3.18403747,6.93593302 3.44950674,6.93593302 C3.71497601,6.93593302 3.93019518,6.72480017 3.93019518,6.46437131 L3.93019518,6.46437131 L3.93019518,5.89847887 C3.93019518,5.63805001 3.71497601,5.42691716 3.44950674,5.42691716 Z M4.61119651,5.42691716 C4.34572724,5.42691716 4.13050807,5.63805001 4.13050807,5.89847887 L4.13050807,5.89847887 L4.13050807,6.46437131 C4.13050807,6.72480017 4.34572724,6.93593302 4.61119651,6.93593302 C4.87666577,6.93593302 5.09188495,6.72480017 5.09188495,6.46437131 L5.09188495,6.46437131 L5.09188495,5.89847887 C5.09188495,5.63805001 4.87666577,5.42691716 4.61119651,5.42691716 Z" id="Combined-Shape"></path>
                                    </g>
                                </g>
                            </g>
                        </g>
                    </g>
                </g>
            </g>
        </g>
    </g>
</svg>