<?xml version="1.0" encoding="UTF-8"?>
<svg width="16px" height="11px" viewBox="0 0 16 11" version="1.1" xmlns="http://www.w3.org/2000/svg" xmlns:xlink="http://www.w3.org/1999/xlink">
    <title>29594D99-4D69-46C2-AAB9-30BE1A0F3050</title>
    <g id="Page-1" stroke="none" stroke-width="1" fill="none" fill-rule="evenodd">
        <g id="02.Room-Profile" transform="translate(-949.000000, -1122.000000)" fill="#FFFFFF">
            <g id="Group-2" transform="translate(140.000000, 568.000000)">
                <g id="Group-13" transform="translate(32.000000, 24.000000)">
                    <g id="Group-11" transform="translate(419.000000, 474.000000)">
                        <g id="Group-5" transform="translate(0.000000, 42.000000)">
                            <g id="Stacked-Group-Copy-3" transform="translate(266.000000, 0.000000)">
                                <g id="Group-3-Copy-5" transform="translate(8.000000, 2.000000)">
                                    <g id="Icon/16/Location" transform="translate(84.000000, 10.000000)">
                                        <path d="M14.3333158,6.52940998 C15.2519702,6.52940998 16,7.25541132 16,8.1470499 L16,8.1470499 L16,12.6764599 C16,12.8550484 15.8506565,13 15.6666569,13 C15.4826573,13 15.3333138,12.8550484 15.3333138,12.6764599 L15.3333138,12.6764599 L15.3333138,11.7058699 L0.666686198,11.7058699 L0.666686198,12.6764599 C0.666686198,12.8550484 0.51734274,13 0.333343099,13 C0.149343458,13 0,12.8550484 0,12.6764599 L0,12.6764599 L0,8.1470499 C0,7.25541132 0.747998539,6.52940998 1.66665299,6.52940998 L1.66665299,6.52940998 Z M15.3333138,10.4117701 L0.666654948,10.4117701 L0.666654948,11.05882 L15.3333138,11.05882 L15.3333138,10.4117701 Z M13.0000059,2 C13.9186603,2 14.6666589,2.72600133 14.6666589,3.61763992 L14.6666589,3.61763992 L14.6666589,5.55881996 C14.6666589,5.73740852 14.5173154,5.88236008 14.3333158,5.88236008 L14.3333158,5.88236008 L12.6666628,5.88236008 C12.7693188,5.88236008 12.8659749,5.83640871 12.9293185,5.75812456 C12.9926309,5.6798404 13.0153183,5.57695786 12.9899746,5.48053581 L12.9899746,5.48053581 L12.7826313,4.67625032 C12.6712878,4.24336718 12.271976,3.94118004 11.8126332,3.94118004 L11.8126332,3.94118004 L9.66663737,3.94118004 C9.1152947,3.94118004 8.66663932,4.37664132 8.66663932,4.91177006 L8.66663932,4.91177006 L8.66663932,5.55881996 C8.66663932,5.73740852 8.81598278,5.88236008 8.99998242,5.88236008 L8.99998242,5.88236008 L6.99998633,5.88236008 C7.18398597,5.88236008 7.33332943,5.73740852 7.33332943,5.55881996 L7.33332943,5.55881996 L7.33332943,4.91177006 C7.33332943,4.37664132 6.88467405,3.94118004 6.33334115,3.94118004 L6.33334115,3.94118004 L4.18733557,3.94118004 C3.72799272,3.94118004 3.328681,4.24336718 3.21733747,4.67625032 L3.21733747,4.67625032 L3.00999412,5.48053581 C2.98530667,5.57759481 3.00730663,5.6798404 3.07065025,5.75812456 C3.13396263,5.83640871 3.23064994,5.88236008 3.33330599,5.88236008 L3.33330599,5.88236008 L1.66665299,5.88236008 C1.48265335,5.88236008 1.33334115,5.73740852 1.33334115,5.55881996 L1.33334115,5.55881996 L1.33334115,3.61763992 C1.33334115,2.72600133 2.08133968,2 2.99999414,2 L2.99999414,2 Z" id="Combined-Shape"></path>
                                    </g>
                                </g>
                            </g>
                        </g>
                    </g>
                </g>
            </g>
        </g>
    </g>
</svg>