<?xml version="1.0" encoding="UTF-8"?>
<svg width="16px" height="16px" viewBox="0 0 16 16" version="1.1" xmlns="http://www.w3.org/2000/svg" xmlns:xlink="http://www.w3.org/1999/xlink">
    <title>02CCB6EC-51D6-4288-A88A-DCF1F053CB4A</title>
    <g id="Page-1" stroke="none" stroke-width="1" fill="none" fill-rule="evenodd">
        <g id="02.Room-Profile" transform="translate(-641.000000, -1116.000000)" fill="#FFFFFF">
            <g id="Group-2" transform="translate(140.000000, 568.000000)">
                <g id="Group-13" transform="translate(32.000000, 24.000000)">
                    <g id="Group-11" transform="translate(419.000000, 474.000000)">
                        <g id="Group-5" transform="translate(0.000000, 42.000000)">
                            <g id="Group-3-Copy-5" transform="translate(8.000000, 2.000000)">
                                <g id="Icon/16/Location" transform="translate(42.000000, 6.000000)">
                                    <path d="M15.1999756,0 C15.6799753,0 16,0.31998725 16,0.799986875 L16,0.799986875 L16,4.480009 C16,4.63998388 15.9200126,4.87998369 15.7600002,5.03999606 L15.7600002,5.03999606 L13.5999925,7.19999438 L13.5999925,10.3999794 L14.3999888,10.3999794 L14.3999888,14.3999888 C14.3999888,15.2800006 13.6800268,16 12.800015,16 C11.9200032,16 11.2000037,15.2800006 11.2000037,14.3999888 L11.2000037,14.3999888 L11.2000037,10.3999794 L11.9999906,10.3999794 L11.9999906,7.19999438 L9.83999231,5.03995856 C9.67997994,4.87998369 9.5999925,4.71997131 9.5999925,4.4799715 L9.5999925,4.4799715 L9.5999925,0.799986875 C9.5999925,0.31998725 9.91997975,0 10.3999794,0 L10.3999794,0 Z M4,0 C6.23999513,0 7.99998125,1.75998613 7.99998125,4 C7.99998125,5.92000787 6.64000731,7.51998163 4.79999625,7.91999381 L4.79999625,7.91999381 L4.79999625,10.3999794 L5.60002062,10.3999794 L5.60002062,14.3999888 C5.60002062,15.2800006 4.88002119,16 4,16 C3.11999756,16 2.39999813,15.2800006 2.39999813,14.3999888 L2.39999813,14.3999888 L2.39999813,10.3999794 L3.199985,10.3999794 L3.199985,7.91999381 C1.36001144,7.52001912 0,5.92000787 0,4 C0,1.75998613 1.75998613,0 4,0 Z M11.2000037,0.800024375 C10.7200041,0.800024375 10.4000169,1.12001162 10.4000169,1.60001125 L10.4000169,1.60001125 L10.4000169,4.00000937 C10.4000169,4.480009 10.7200041,4.79999625 11.2000037,4.79999625 C11.6800034,4.79999625 11.9999906,4.480009 11.9999906,4.00000937 L11.9999906,4.00000937 L11.9999906,1.60001125 C11.9999906,1.12001162 11.6800034,0.800024375 11.2000037,0.800024375 Z M14.3999888,0.800024375 C13.9199891,0.800024375 13.6000019,1.12001162 13.6000019,1.60001125 L13.6000019,1.60001125 L13.6000019,4.00000937 C13.6000019,4.480009 13.9199891,4.79999625 14.3999888,4.79999625 C14.8799884,4.79999625 15.1999756,4.480009 15.1999756,4.00000937 L15.1999756,4.00000937 L15.1999756,1.60001125 C15.1999756,1.12001162 14.8799884,0.800024375 14.3999888,0.800024375 Z" id="Combined-Shape"></path>
                                </g>
                            </g>
                        </g>
                    </g>
                </g>
            </g>
        </g>
    </g>
</svg>