<?xml version="1.0" encoding="UTF-8"?>
<svg width="16px" height="13px" viewBox="0 0 16 13" version="1.1" xmlns="http://www.w3.org/2000/svg" xmlns:xlink="http://www.w3.org/1999/xlink">
    <title>D38FCBD4-17F8-4E51-87E5-43A454FB1B4E</title>
    <g id="Page-1" stroke="none" stroke-width="1" fill="none" fill-rule="evenodd">
        <g id="02.Room-Profile" transform="translate(-825.000000, -1118.000000)" fill="#FFFFFF">
            <g id="Group-2" transform="translate(140.000000, 568.000000)">
                <g id="Group-13" transform="translate(32.000000, 24.000000)">
                    <g id="Group-11" transform="translate(419.000000, 474.000000)">
                        <g id="Group-5" transform="translate(0.000000, 42.000000)">
                            <g id="Stacked-Group-Copy-2" transform="translate(168.000000, 0.000000)">
                                <g id="Group-3-Copy-5" transform="translate(8.000000, 2.000000)">
                                    <g id="Icon/16/Location" transform="translate(58.000000, 6.000000)">
                                        <path d="M15.7100312,6.59432687 C15.3192442,6.9834784 14.684606,6.9834784 14.293819,6.59432687 C10.8173774,3.13243482 5.18066506,3.13243482 1.7042235,6.59432687 C1.31343645,6.98036519 0.678798286,6.98036519 0.28801124,6.58810044 C-0.0965232139,6.19894891 -0.0965232139,5.57319324 0.291137536,5.18404171 C4.5429006,0.943846597 11.4426367,0.937620173 15.7006524,5.17158886 C15.7037787,5.17470207 15.7069049,5.17781529 15.7131575,5.18404171 C16.097692,5.57319324 16.0945657,6.20206212 15.7100312,6.59432687 Z M3.38617095,8.26923507 C2.9953839,8.6583866 2.9953839,9.2903687 3.38617095,9.67952023 C3.77695799,10.0686718 4.41159616,10.0686718 4.8023832,9.67952023 C6.56561436,7.92366851 9.43555443,7.92366851 11.2019119,9.67952023 C11.5926989,10.0686718 12.2273371,10.0686718 12.6181241,9.67952023 C13.0089112,9.2903687 13.0089112,8.6583866 12.6181241,8.26923507 C10.0701926,5.73508028 5.93097619,5.73508028 3.38617095,8.26923507 Z M9.51683813,11.3513152 C10.3546856,12.1856561 10.3546856,13.5399034 9.51683813,14.3742443 C8.6789907,15.2085852 7.31905178,15.2085852 6.48120435,14.3742443 C5.64335693,13.5399034 5.64335693,12.1856561 6.48120435,11.3513152 C7.30967289,10.5169743 8.65710663,10.5076347 9.49495406,11.3326359 C9.50433295,11.3388624 9.51058554,11.3450888 9.51683813,11.3513152 Z" id="Shape"></path>
                                    </g>
                                </g>
                            </g>
                        </g>
                    </g>
                </g>
            </g>
        </g>
    </g>
</svg>